HIERARCHY
ROOT SimulationBone
{
	OFFSET 0.000000 0.000000 0.000000
	CHANNELS 6 Xposition Yposition Zposition Zrotation Yrotation Xrotation 
	JOINT Hips
	{
		OFFSET 0.000000 0.000000 0.000000
		CHANNELS 6 Xposition Yposition Zposition Zrotation Yrotation Xrotation 
		JOINT LeftUpLeg
		{
			OFFSET 0.103456 1.857826 10.548504
			CHANNELS 3 Zrotation Yrotation Xrotation
			JOINT LeftLeg
			{
				OFFSET 43.499996 -0.000038 0.000006
				CHANNELS 3 Zrotation Yrotation Xrotation
				JOINT LeftFoot
				{
					OFFSET 42.372192 0.000011 -0.000004
					CHANNELS 3 Zrotation Yrotation Xrotation
					JOINT LeftToe
					{
						OFFSET 17.300018 0.000006 0.000004
						CHANNELS 3 Zrotation Yrotation Xrotation
						End Site
						{
							OFFSET 0.000000 0.000000 0.000000
						}
					}
				}
			}
		}
		JOINT RightUpLeg
		{
			OFFSET 0.103455 1.857819 -10.548502
			CHANNELS 3 Zrotation Yrotation Xrotation
			JOINT RightLeg
			{
				OFFSET 43.500038 -0.000031 0.000011
				CHANNELS 3 Zrotation Yrotation Xrotation
				JOINT RightFoot
				{
					OFFSET 42.372261 -0.000008 0.000014
					CHANNELS 3 Zrotation Yrotation Xrotation
					JOINT RightToe
					{
						OFFSET 17.299999 -0.000004 0.000004
						CHANNELS 3 Zrotation Yrotation Xrotation
						End Site
						{
							OFFSET 0.000000 0.000000 0.000000
						}
					}
				}
			}
		}
		JOINT Spine
		{
			OFFSET 6.901965 -2.603737 -0.000000
			CHANNELS 3 Zrotation Yrotation Xrotation
			JOINT Spine1
			{
				OFFSET 12.588105 0.000013 0.000001
				CHANNELS 3 Zrotation Yrotation Xrotation
				JOINT Spine2
				{
					OFFSET 12.343203 0.000010 -0.000000
					CHANNELS 3 Zrotation Yrotation Xrotation
					JOINT Neck
					{
						OFFSET 25.832893 -0.000038 0.000001
						CHANNELS 3 Zrotation Yrotation Xrotation
						JOINT Head
						{
							OFFSET 11.766606 0.000028 0.000001
							CHANNELS 3 Zrotation Yrotation Xrotation
							End Site
							{
								OFFSET 0.000000 0.000000 0.000000
							}
						}
					}
					JOINT LeftShoulder
					{
						OFFSET 19.745897 -1.480375 6.000107
						CHANNELS 3 Zrotation Yrotation Xrotation
						JOINT LeftArm
						{
							OFFSET 11.284126 -0.000009 -0.000017
							CHANNELS 3 Zrotation Yrotation Xrotation
							JOINT LeftForeArm
							{
								OFFSET 33.000046 0.000006 0.000030
								CHANNELS 3 Zrotation Yrotation Xrotation
								JOINT LeftHand
								{
									OFFSET 25.200006 0.000034 0.000015
									CHANNELS 3 Zrotation Yrotation Xrotation
									End Site
									{
										OFFSET 0.000000 0.000000 0.000000
									}
								}
							}
						}
					}
					JOINT RightShoulder
					{
						OFFSET 19.746096 -1.480394 -6.000075
						CHANNELS 3 Zrotation Yrotation Xrotation
						JOINT RightArm
						{
							OFFSET 11.284135 -0.000006 -0.000006
							CHANNELS 3 Zrotation Yrotation Xrotation
							JOINT RightForeArm
							{
								OFFSET 33.000095 0.000018 0.000006
								CHANNELS 3 Zrotation Yrotation Xrotation
								JOINT RightHand
								{
									OFFSET 25.199783 0.000116 0.000436
									CHANNELS 3 Zrotation Yrotation Xrotation
									End Site
									{
										OFFSET 0.000000 0.000000 0.000000
									}
								}
							}
						}
					}
				}
			}
		}
	}
}
MOTION
Frames: 10
Frame Time: 0.033333
-107.828693 0.000000 27.290413 0.000000 58.964161 0.000000 -0.376272 91.036079 1.306873 95.884968 4.245543 -179.403845 161.083455 -7.472002 170.758472 -53.407513 4.405168 -4.937579 81.618110 2.779096 -2.446589 21.454553 0.003101 0.000002 -179.509352 -6.438801 -173.740451 -21.731893 4.025772 15.359128 83.029842 -9.615630 5.722315 21.454557 -0.003103 -0.000017 9.184807 1.142413 1.024153 8.378871 2.207676 2.128614 8.060752 2.220618 2.115254 -19.773476 1.830212 -3.836927 -14.491985 0.389185 -3.002827 172.978994 -72.918492 5.877925 -10.575967 60.299191 30.827611 -24.543211 -12.772070 0.992720 14.825634 -14.083292 -5.202101 142.245424 71.554844 -37.454408 -8.481486 -52.949669 -12.697749 -38.657190 14.728217 -1.433173 14.418727 7.041513 -14.834879 
-106.449441 0.000000 24.829726 0.000000 59.894241 0.000000 -0.515793 90.864861 1.353439 95.601114 4.481026 179.871230 159.669783 -6.441410 170.554618 -46.034570 3.532075 -4.638250 82.274806 2.859529 -1.348983 21.454553 0.003090 0.000000 -177.888192 -6.576998 -173.783303 -21.693562 3.990565 15.250995 83.952724 -9.396672 6.595669 21.454557 -0.003110 -0.000018 9.149799 1.130209 1.130830 8.310506 2.176306 2.340228 7.992445 2.190534 2.327051 -19.549938 1.060131 -3.382771 -14.618806 -0.107935 -2.748556 173.053962 -72.708095 5.808098 -7.250698 59.895882 34.426759 -22.375549 -12.216671 0.926052 14.573100 -11.577209 -2.465002 140.691228 71.761731 -39.022571 -10.264938 -51.496939 -10.062976 -40.283469 14.732242 -1.475696 13.901947 7.791605 -13.936881 
-105.151344 0.000000 22.332023 0.000000 60.914913 0.000000 -0.584056 90.570099 1.553793 95.319247 4.873527 179.314305 158.706918 -5.794998 169.550307 -38.245907 2.363356 -4.251475 81.504804 2.997038 0.291318 21.454555 0.003083 -0.000002 -175.935277 -7.003297 -173.716204 -21.144765 3.917978 15.189555 84.987456 -9.245930 7.395288 21.454562 -0.003114 -0.000018 9.114073 1.147841 1.153792 8.239881 2.210623 2.386731 7.921828 2.225136 2.373348 -19.618482 0.656442 -3.008897 -14.512617 -0.782947 -2.337740 172.688971 -72.789695 6.179929 -4.476231 59.789898 37.265246 -20.438479 -11.743829 0.871039 14.335377 -8.328780 0.079483 139.384271 71.862818 -40.345589 -11.564754 -50.073838 -7.827327 -42.197175 14.890291 -1.537959 13.283831 8.577852 -13.813088 
-103.932487 0.000000 19.802926 0.000000 62.027404 0.000000 -0.649771 90.283737 1.833465 94.985945 5.177549 178.654080 158.158399 -5.087015 167.039953 -30.410526 1.295163 -3.788820 79.880271 2.526113 -0.579630 21.454553 0.003083 -0.000001 -173.773277 -7.381902 -173.819722 -20.117559 3.877229 15.186473 85.846319 -9.157159 8.161385 21.454557 -0.003107 -0.000016 9.068471 1.131104 1.150976 8.148217 2.178389 2.379057 7.830172 2.192851 2.365861 -19.859642 0.651102 -2.735824 -14.210411 -1.470452 -1.841375 172.121109 -73.023513 6.754862 -2.273173 59.933687 39.227112 -18.884353 -11.351409 0.828150 14.578074 -5.391290 1.203981 138.425449 71.900035 -41.318768 -12.442269 -48.899503 -5.859617 -44.211729 15.157185 -1.612685 12.621319 9.420319 -14.130449 
-102.789792 0.000000 17.240448 0.000000 63.224695 0.000000 -0.674838 89.877434 2.129977 94.649311 5.658610 177.752356 158.151637 -4.410091 162.810495 -23.062161 0.239203 -4.661908 78.624131 3.396108 0.289837 21.454551 0.003095 0.000001 -171.701926 -7.824703 -174.174455 -19.417331 3.905402 15.115463 86.713555 -9.026062 9.017781 21.454557 -0.003114 -0.000018 9.016092 1.134003 1.166538 8.043824 2.184227 2.409393 7.725777 2.198863 2.396172 -20.054182 0.835335 -2.469379 -13.967161 -2.001311 -1.321941 171.705082 -73.175102 7.177000 -0.530774 60.105269 40.383340 -17.858809 -11.065490 0.799138 15.048865 -3.377603 1.315516 137.693171 71.908293 -42.063081 -13.002910 -48.046259 -4.072460 -46.025435 15.391193 -1.681822 12.005926 10.302252 -14.364100 
-101.710657 0.000000 14.636670 0.000000 64.493100 0.000000 -0.717299 89.480553 2.334366 94.338730 6.034597 176.746576 158.285577 -3.634401 158.166868 -17.606795 -0.639865 -7.021220 78.497028 5.177729 0.726280 21.454553 0.003104 0.000001 -169.702334 -7.929195 -174.583187 -18.956410 4.092370 14.923130 87.371247 -8.817810 9.873847 21.454560 -0.003111 -0.000018 8.965291 1.117250 1.164635 7.941750 2.151996 2.403496 7.623718 2.166594 2.390473 -20.166782 1.035320 -2.160397 -13.753503 -2.382792 -0.807437 171.542004 -73.210803 7.343016 0.538813 60.266666 40.814741 -17.366374 -10.906470 0.784100 15.332825 -2.483956 1.154790 137.143696 71.955886 -42.618229 -13.378362 -47.617914 -2.415180 -47.506141 15.570845 -1.739060 11.575111 11.031625 -14.409947 
-100.691341 0.000000 11.984540 0.000000 65.822703 0.000000 -0.654716 88.923073 2.551275 94.115428 6.663701 175.828433 158.209338 -2.693996 155.207347 -15.342521 -0.618671 -10.115960 79.295211 7.709122 2.324662 21.454551 0.003087 -0.000003 -167.907524 -8.092799 -174.733424 -19.320087 4.439178 14.580099 87.961232 -8.484862 10.893141 21.454560 -0.003102 -0.000018 8.909131 1.143251 1.148620 7.829722 2.206217 2.372272 7.511667 2.220635 2.358919 -20.248058 1.231075 -1.864666 -13.369272 -2.701295 -0.334872 171.502922 -73.285888 7.381102 1.004241 60.446122 41.032901 -17.360169 -10.899309 0.783580 15.267235 -2.573868 1.005971 136.877373 72.077682 -42.879101 -13.345846 -47.728856 -1.194509 -48.753440 15.745150 -1.789860 11.355215 11.455113 -14.404017 
-99.711089 0.000000 9.284553 0.000000 67.213365 0.000000 -0.626486 88.568550 2.668072 94.002674 6.894917 174.846938 158.496370 -1.778000 154.914441 -16.570049 -0.579621 -11.541398 80.131882 9.173837 4.658290 21.454551 0.003087 0.000001 -166.294766 -7.750398 -174.935884 -19.975286 4.830569 14.476065 87.593283 -8.272735 11.865485 21.454558 -0.003105 -0.000016 8.848385 1.070676 1.125539 7.706116 2.064100 2.320110 7.388068 2.078193 2.307624 -20.146278 1.421245 -1.608176 -12.915986 -2.947607 0.066158 171.622095 -73.482385 7.251941 0.576914 60.701086 40.801030 -17.840954 -11.028928 0.796612 15.024871 -3.191248 0.987079 136.823948 72.209054 -42.922883 -12.661163 -48.373131 -0.773173 -49.883347 15.832489 -1.831997 11.257804 11.652935 -14.424134 
-98.758386 0.000000 6.539133 0.000000 68.677436 0.000000 -0.378108 88.318733 2.608085 94.138555 6.798093 173.440756 159.471830 -0.742602 156.844667 -18.884508 -0.566529 -12.517009 80.529802 10.619451 8.312146 21.454553 0.003098 -0.000000 -165.122979 -6.335793 -174.674725 -22.199981 5.611184 13.700159 86.337307 -7.519113 12.755961 21.454563 -0.003113 -0.000018 8.787839 0.892092 1.150884 7.581253 1.706951 2.357867 7.263313 1.721301 2.347525 -19.632049 1.527887 -1.250286 -12.749408 -3.023105 0.469910 172.228015 -73.614993 6.625004 -0.518554 60.830867 40.067146 -18.701027 -11.194059 0.816086 14.731207 -3.966582 0.962294 136.794687 72.190735 -42.953912 -11.041093 -49.272148 -1.679182 -50.713957 15.663290 -1.847894 11.140389 11.825449 -14.402200 
-97.834259 0.000000 3.754740 0.000000 70.224103 0.000000 -0.034992 88.229431 2.288185 94.386723 6.012597 171.715129 161.020644 1.193301 159.612614 -19.767594 -0.867224 -14.207868 80.619004 12.708880 12.587928 21.454551 0.003105 0.000001 -165.332228 -3.324797 -172.642020 -27.215302 6.191859 11.570820 83.674585 -5.508907 14.207064 21.454557 -0.003108 -0.000018 8.713632 0.554774 1.164209 7.425415 1.033817 2.361613 7.107556 1.048193 2.355346 -18.885488 1.492364 -0.634969 -12.850650 -2.902734 0.998223 173.170909 -73.504016 5.660884 -2.500508 60.677345 38.642205 -19.628741 -11.295017 0.832768 14.362759 -4.792785 0.600797 136.746288 72.057628 -43.013973 -8.922958 -50.241287 -3.860656 -50.800208 15.267730 -1.824361 10.947916 12.009172 -14.393550 
